<?xml version="1.0" encoding="utf-8"?>
<!-- Generator: Adobe Illustrator 19.0.0, SVG Export Plug-In . SVG Version: 6.00 Build 0)  -->
<svg version="1.1" id="Layer_1" xmlns="http://www.w3.org/2000/svg" xmlns:xlink="http://www.w3.org/1999/xlink" x="0px" y="0px"
	 viewBox="0 0 16 16" style="enable-background:new 0 0 16 16;" xml:space="preserve">
<style type="text/css">
	.st0{fill:#A7AAAD;}
</style>
<g id="XMLID_1_">
	<path id="XMLID_121_" class="st0" d="M8.6,0h-1C6.4,0,5.4,1,5.4,2.2v0.9c0.1,0,0.3,0.1,0.4,0.1v-1c0-1,0.8-1.9,1.9-1.9h1
		c1,0,1.9,0.8,1.9,1.9v1.4c0.1,0,0.3,0,0.4,0V2.2C10.9,1,9.9,0,8.6,0z"/>
	<path id="XMLID_45_" class="st0" d="M13.4,3.5C6.1,5.4,3,1.5,1.5,3.9c-0.9,1.3,0.2,6.1,1,10.4C4,15.4,5.9,16,8,16
		c2.2,0,4.2-0.7,5.8-1.8C14.9,9.9,15.6,3,13.4,3.5z M5.4,8.3V7.9h0.5v0.4v0.2H5.4V8.3z M4.5,7.1h0.2v0.2H4.5V7.1z M3.1,7.4h0.5v0.5
		H3.1V7.4z M4,8.6H3.5V8.1H4V8.6z M4.1,7.9H3.8V7.6h0.3V7.9z M4.3,7.3H3.9V6.9h0.4V7.3z M4.3,7.5h0.6v0.6H4.3V7.5z M11.4,13.1h-0.5
		v-0.5h0.5V13.1z M11.2,12.3v-0.3h0.3v0.3H11.2z M9.3,11.4l1.1,1.3H10v0.8h0.8V13l0.6,0.7H9.4l-1.2-1.4L7,13.8H5l2-2.4L5.3,9.3V8.8
		H4.9L4.5,8.3h0.7v0.3h0.9V8.3h0.2l1.9,2.1l2.2-2.5c0.3-0.4,0.8-0.6,1.3-0.6h1.1L9.3,11.4z M10.5,12.4V12h0.4v0.4H10.5z M10.6,12.9
		v0.4h-0.4v-0.4H10.6z M4.7,9.5V9h0.2h0.2v0.3v0.2H4.7z"/>
</g>
</svg>
