<?xml version="1.0" encoding="utf-8"?>
<!-- Generator: Adobe Illustrator 19.0.0, SVG Export Plug-In . SVG Version: 6.00 Build 0)  -->
<svg version="1.1" id="Layer_1" xmlns="http://www.w3.org/2000/svg" xmlns:xlink="http://www.w3.org/1999/xlink" x="0px" y="0px"
	 viewBox="0 0 175 42.5" style="enable-background:new 0 0 175 42.5;" xml:space="preserve">
<style type="text/css">
	.st0{fill:#181718;}
	.st1{fill:url(#XMLID_6_);}
	.st2{fill:url(#XMLID_7_);}
	.st3{fill:#F8F8FB;}
</style>
<g id="XMLID_1_">
	<g id="XMLID_122_">
		<path id="XMLID_147_" class="st0" d="M17.9,29.9l-2.1-11.6L10,30.1L9.9,30l-0.1,0.2L4,18.3L1.9,29.9H0l3-17.2h0.3l6.5,13.5
			l0.1,0.3l0.1-0.3l6.5-13.5h0.3l3,17.2H17.9z"/>
		<path id="XMLID_145_" class="st0" d="M32.8,17.3v12.7h-1.6L31,28.2v-0.1c-1.1,1.3-2.8,2.2-4.4,2.2c-2.9,0-4.5-1.7-4.5-5.7v-7.4
			h1.8v7.4c0,2.6,0.9,4.1,3.2,4.1c1.4,0,2.9-0.9,3.9-2.4l0-9.2H32.8z"/>
		<path id="XMLID_143_" class="st0" d="M36.3,11.9h1.8v18h-1.8V11.9z"/>
		<path id="XMLID_141_" class="st0" d="M42.2,25.9v-7h-2.5v-1.6h2.4v-2.6l1.9-1.4v4h3.9v1.6H44v6.9c0,2,0.9,2.9,2.3,2.9
			c1.1,0,2-0.4,2.4-0.5l-0.1,1.6c-0.5,0.2-1.3,0.6-2.5,0.6C43.5,30.4,42.2,28.6,42.2,25.9z"/>
		<path id="XMLID_138_" class="st0" d="M50.1,13.7c0-0.7,0.6-1.3,1.3-1.3s1.3,0.5,1.3,1.3c0,0.7-0.6,1.2-1.3,1.2
			S50.1,14.4,50.1,13.7z M50.6,17.3h1.8v12.7h-1.8V17.3z"/>
		<path id="XMLID_136_" class="st0" d="M69.5,13l-7.4,17.6h-0.3L54.3,13h2.1l5.6,13.4L67.4,13H69.5z"/>
		<path id="XMLID_133_" class="st0" d="M80.1,24.3h-9.9c0.1,2.7,2.2,4.5,4.9,4.5c1.9,0,3.2-0.7,4.5-1.5L79.6,29
			c-1,0.5-2.5,1.3-4.6,1.3c-3.8,0-6.4-2.9-6.4-6.9c0-3.9,2.7-6.6,6-6.6c3.5,0,5.6,2.6,5.6,5.9C80.2,23,80.2,24.1,80.1,24.3z
			 M78.6,22.8c0.1-2.9-1.6-4.5-3.9-4.5c-2.6,0-4.3,1.8-4.4,4.5H78.6z"/>
		<path id="XMLID_131_" class="st0" d="M93.2,22.5v7.4h-1.8v-7.4c0-2.6-0.9-4.1-3.2-4.1c-1.4,0-2.9,0.9-3.9,2.4l0,9.2h-1.8V17.3h1.6
			l0.2,1.7v0.1c1.1-1.3,2.8-2.2,4.4-2.2C91.6,16.9,93.2,18.5,93.2,22.5z"/>
		<path id="XMLID_128_" class="st0" d="M107.6,11.9l0,18H106l-0.2-1.7v-0.1c-1.1,1.3-2.4,2.2-4.2,2.2c-3.3,0-6-2.7-6-6.7
			c0-4,2.4-6.8,5.8-6.8c1.6,0,3.2,0.9,4.4,2v-6.9H107.6z M105.8,26.5v-6c-1.3-1.4-2.6-2-4-2c-2.7,0-4.5,2.1-4.5,5.2
			c0,3.1,2,5.2,4.6,5.2C103.5,28.8,104.7,27.9,105.8,26.5z"/>
		<path id="XMLID_125_" class="st0" d="M110,23.6c0-3.9,2.8-6.8,6.6-6.8c3.8,0,6.6,2.9,6.6,6.8c0,3.9-2.8,6.7-6.6,6.7
			C112.9,30.4,110,27.5,110,23.6z M121.6,23.6c0-3-2.1-5.2-4.9-5.2c-2.8,0-4.9,2.3-4.9,5.2c0,3,2.1,5.2,4.9,5.2
			C119.4,28.8,121.6,26.6,121.6,23.6z"/>
		<path id="XMLID_123_" class="st0" d="M132.8,18.8c-0.6-0.3-1.3-0.4-1.9-0.4c-1.3,0-2.5,0.9-3.4,2.4l0,9.1h-1.8V17.3h1.5l0.2,1.8
			c1-1.4,2.3-2.2,3.6-2.2c0.5,0,1.1,0.1,1.6,0.3L132.8,18.8z"/>
	</g>
	<g id="XMLID_11_">
		<g id="XMLID_4_">
			<linearGradient id="XMLID_6_" gradientUnits="userSpaceOnUse" x1="144.0052" y1="10.33" x2="186.9133" y2="54.0302">
				<stop  offset="0" style="stop-color:#3A2768"/>
				<stop  offset="0.5" style="stop-color:#9D3668"/>
				<stop  offset="1" style="stop-color:#C6454D"/>
			</linearGradient>
			<path id="XMLID_87_" class="st1" d="M171.2,9.3c-19.8,5.1-28.1-5.3-32.2,1.1c-2.3,3.6,0.5,16.4,2.6,27.9c4.3,2.8,9.5,4.5,15,4.5
				c5.8,0,11.2-1.8,15.6-4.9C175.1,26.3,177.1,7.7,171.2,9.3z"/>
			<linearGradient id="XMLID_7_" gradientUnits="userSpaceOnUse" x1="152.8521" y1="1.6436" x2="195.7601" y2="45.3438">
				<stop  offset="0" style="stop-color:#3A2768"/>
				<stop  offset="0.5" style="stop-color:#9D3668"/>
				<stop  offset="1" style="stop-color:#C6454D"/>
			</linearGradient>
			<path id="XMLID_121_" class="st2" d="M158.3-0.2h-2.8c-3.3,0-6,2.7-6,6v2.5c0.3,0.1,0.7,0.2,1,0.2V5.8c0-2.8,2.2-5,5-5h2.8
				c2.8,0,5,2.2,5,5v3.7c0.3,0,0.7-0.1,1-0.1V5.8C164.3,2.5,161.6-0.2,158.3-0.2z"/>
		</g>
		<g id="XMLID_3_">
			<rect id="XMLID_75_" x="147.2" y="18.8" class="st3" width="0.6" height="0.6"/>
			<rect id="XMLID_46_" x="144.4" y="21.5" class="st3" width="1.4" height="1.4"/>
			<rect id="XMLID_43_" x="145.3" y="20.2" class="st3" width="0.7" height="0.7"/>
			<polygon id="XMLID_40_" class="st3" points="148.2,24 147.7,24 147.7,25.1 148.8,25.1 148.8,24.7 148.8,24 			"/>
			<polygon id="XMLID_37_" class="st3" points="149.5,21 149.5,21.9 149.5,22.4 151,22.4 151,21.9 151,21 			"/>
			<rect id="XMLID_33_" x="143.4" y="19.6" class="st3" width="1.3" height="1.3"/>
			<rect id="XMLID_30_" x="146.8" y="20" class="st3" width="1.5" height="1.5"/>
			<rect id="XMLID_26_" x="145.5" y="18.4" class="st3" width="1" height="1"/>
			<path id="XMLID_23_" class="st3" d="M163.9,35.9h-2.1v-2.1h1.3l-3-3.5l9.6-11.1h-3.1c-1.4,0-2.7,0.6-3.6,1.6l-6,6.8l-5-5.6h-0.6
				v0.8H149v-0.8h-1.9l1.1,1.3h1.2v1.4l4.7,5.5l-5.4,6.4h5.2l3.3-3.7l3.3,3.7h5.2l-1.7-2V35.9z"/>
			<rect id="XMLID_20_" x="162.3" y="34.3" class="st3" width="1.1" height="1.1"/>
			<rect id="XMLID_17_" x="163.3" y="31.9" class="st3" width="1.1" height="1.1"/>
			<rect id="XMLID_12_" x="164.4" y="33.5" class="st3" width="1.4" height="1.4"/>
			<rect id="XMLID_5_" x="165.1" y="32.1" class="st3" width="0.7" height="0.7"/>
		</g>
	</g>
</g>
</svg>
